<svg width="18" height="15" viewBox="0 0 18 15" fill="none" xmlns="http://www.w3.org/2000/svg">
<g filter="url(#filter0_i_141_120)">
<path d="M2.62993 0.119019C1.42613 0.119019 0.450256 1.09489 0.450256 2.29869V12.4996C0.450256 13.7034 1.42613 14.6793 2.62994 14.6793H8.99459V9.79784C8.92669 9.80352 8.858 9.80641 8.78863 9.80641C7.44037 9.80641 6.34739 8.71343 6.34739 7.36517C6.34739 6.01691 7.44037 4.92393 8.78863 4.92393C8.858 4.92393 8.92669 4.92683 8.99459 4.9325V0.119019H2.62993Z" fill="#333333"/>
</g>
<g filter="url(#filter1_i_141_120)">
<path d="M14.9351 0.172729C16.1389 0.172729 17.1148 1.1486 17.1148 2.35241V12.5533C17.1148 13.7571 16.1389 14.733 14.9351 14.733H8.78845V9.80689C10.1367 9.80688 11.2297 8.7139 11.2297 7.36565C11.2297 6.01739 10.1367 4.92442 8.78845 4.92441V0.172729H14.9351Z" fill="url(#paint0_linear_141_120)"/>
</g>
<g filter="url(#filter2_i_141_120)">
<path d="M10.8374 7.40925C10.8374 8.54065 9.91986 9.45815 8.78846 9.45815C7.65706 9.45815 6.73956 8.54065 6.73956 7.40925C6.73956 6.27785 7.65706 5.36035 8.78846 5.36035C9.91986 5.36035 10.8374 6.27785 10.8374 7.40925Z" fill="black" fill-opacity="0.65"/>
</g>
<path fill-rule="evenodd" clip-rule="evenodd" d="M9.03443 6.58974C9.03443 6.45394 8.92436 6.34387 8.78856 6.34387C8.65276 6.34387 8.54269 6.45394 8.54269 6.58974V7.16345H7.96883C7.83303 7.16345 7.72296 7.27352 7.72296 7.40932C7.72296 7.54512 7.83303 7.65519 7.96883 7.65519H8.54269V8.22886C8.54269 8.36466 8.65276 8.47472 8.78856 8.47472C8.92436 8.47472 9.03443 8.36466 9.03443 8.22886V7.65519H9.60795C9.74375 7.65519 9.85381 7.54512 9.85381 7.40932C9.85381 7.27352 9.74375 7.16345 9.60795 7.16345H9.03443V6.58974Z" fill="white"/>
<defs>
<filter id="filter0_i_141_120" x="0.450256" y="0.119019" width="8.54431" height="14.7965" filterUnits="userSpaceOnUse" color-interpolation-filters="sRGB">
<feFlood flood-opacity="0" result="BackgroundImageFix"/>
<feBlend mode="normal" in="SourceGraphic" in2="BackgroundImageFix" result="shape"/>
<feColorMatrix in="SourceAlpha" type="matrix" values="0 0 0 0 0 0 0 0 0 0 0 0 0 0 0 0 0 0 127 0" result="hardAlpha"/>
<feOffset dy="0.236235"/>
<feGaussianBlur stdDeviation="0.366799"/>
<feComposite in2="hardAlpha" operator="arithmetic" k2="-1" k3="1"/>
<feColorMatrix type="matrix" values="0 0 0 0 1 0 0 0 0 1 0 0 0 0 1 0 0 0 0.9 0"/>
<feBlend mode="normal" in2="shape" result="effect1_innerShadow_141_120"/>
</filter>
<filter id="filter1_i_141_120" x="8.78845" y="0.172729" width="8.32635" height="14.7965" filterUnits="userSpaceOnUse" color-interpolation-filters="sRGB">
<feFlood flood-opacity="0" result="BackgroundImageFix"/>
<feBlend mode="normal" in="SourceGraphic" in2="BackgroundImageFix" result="shape"/>
<feColorMatrix in="SourceAlpha" type="matrix" values="0 0 0 0 0 0 0 0 0 0 0 0 0 0 0 0 0 0 127 0" result="hardAlpha"/>
<feOffset dy="0.236235"/>
<feGaussianBlur stdDeviation="0.366799"/>
<feComposite in2="hardAlpha" operator="arithmetic" k2="-1" k3="1"/>
<feColorMatrix type="matrix" values="0 0 0 0 1 0 0 0 0 1 0 0 0 0 1 0 0 0 0.9 0"/>
<feBlend mode="normal" in2="shape" result="effect1_innerShadow_141_120"/>
</filter>
<filter id="filter2_i_141_120" x="6.73956" y="5.36035" width="4.09778" height="4.32452" filterUnits="userSpaceOnUse" color-interpolation-filters="sRGB">
<feFlood flood-opacity="0" result="BackgroundImageFix"/>
<feBlend mode="normal" in="SourceGraphic" in2="BackgroundImageFix" result="shape"/>
<feColorMatrix in="SourceAlpha" type="matrix" values="0 0 0 0 0 0 0 0 0 0 0 0 0 0 0 0 0 0 127 0" result="hardAlpha"/>
<feOffset dy="0.226738"/>
<feGaussianBlur stdDeviation="0.352053"/>
<feComposite in2="hardAlpha" operator="arithmetic" k2="-1" k3="1"/>
<feColorMatrix type="matrix" values="0 0 0 0 1 0 0 0 0 1 0 0 0 0 1 0 0 0 0.9 0"/>
<feBlend mode="normal" in2="shape" result="effect1_innerShadow_141_120"/>
</filter>
<linearGradient id="paint0_linear_141_120" x1="12.9516" y1="0.172729" x2="12.9516" y2="14.733" gradientUnits="userSpaceOnUse">
<stop stop-color="white" stop-opacity="0.59"/>
<stop offset="1" stop-color="#5E5E5E" stop-opacity="0.59"/>
</linearGradient>
</defs>
</svg>
